General


Complete name                            : Courageous 2011 DVDRIP XVID AC3 - Xtreme Encode.avi
Format                                   : AVI
Format/Info                              : Audio Video Interleave
Format profile                           : OpenDML
Format settings                          : rec
File size                                : 1.45 GiB
Duration                                 : 2h 4mn
Overall bit rate                         : 1 673 Kbps





Video


ID                                       : 0
Format                                   : MPEG-4 Visual
Format profile                           : Advanced Simple@L5
Format settings, BVOP                    : 1
Format settings, QPel                    : No
Format settings, GMC                     : No warppoints
Format settings, Matrix                  : Default (H.263)
Codec ID                                 : XVID
Codec ID/Hint                            : XviD
Duration                                 : 2h 4mn
Bit rate                                 : 1 219 Kbps
Width                                    : 720 pixels
Height                                   : 304 pixels
Display aspect ratio                     : 2.35:1
Frame rate                               : 25.000 fps
Color space                              : YUV
Chroma subsampling                       : 4:2:0
Bit depth                                : 8 bits
Scan type                                : Progressive
Compression mode                         : Lossy
Bits/(Pixel*Frame)                       : 0.223
Stream size                              : 1.06 GiB (73%)




Audio


ID                                       : 1
Format                                   : AC-3
Format/Info                              : Audio Coding 3
Mode extension                           : CM (complete main)
Codec ID                                 : 2000
Duration                                 : 2h 4mn
Bit rate mode                            : Constant
Bit rate                                 : 448 Kbps
Channel(s)                               : 6 channels
Channel positions                        : Front: L C R, Side: L R, LFE
Sampling rate                            : 48.0 KHz
Bit depth                                : 16 bits
Compression mode                         : Lossy
Stream size                              : 398 MiB (27%)
Alignment                                : Aligned on interleaves
Interleave, duration                     : 64 ms (1.60 video frames)
Interleave, preload duration             : 192 ms






SOURCE
Video : PAL DVDR-B1L
Audio : PAL DVDR-B1L



JUST A LITTLE MESS WITH THIS ADDES BIT OF CONTRAS
RESIZED BIT TWEAKED BIT SHARPEN in
SAT HUE and few othere things




PLOT

When a tragedy strikes close to home,
four police officers struggle with their faith
and their roles as husbands and fathers; together
they make a decision that will change all of their lives.





Genres: Drama


Director: Alex Kendrick

Writers: Stephen Kendrick, Alex Kendrick

Stars: Alex Kendrick, Ken Bevel and Kevin Downes


IMDB: http://www.imdb.com/title/tt1630036/
